<?xml version="1.0" standalone="no"?><!DOCTYPE svg PUBLIC "-//W3C//DTD SVG 1.1//EN" "http://www.w3.org/Graphics/SVG/1.1/DTD/svg11.dtd"><svg class="icon" width="200px" height="200.00px" viewBox="0 0 1024 1024" version="1.1" xmlns="http://www.w3.org/2000/svg"><path d="M512 64c247.424 0 448 200.576 448 448S759.424 960 512 960 64 759.424 64 512 264.576 64 512 64z m0 80c-203.24 0-368 164.76-368 368s164.76 368 368 368 368-164.76 368-368-164.76-368-368-368z" fill="#050505" /><path d="M920 472c22.091 0 40 17.909 40 40 0 33.053-16.862 62.742-46.124 87.67-24.589 20.944-58.447 39.001-99.818 53.907C733.382 682.644 626.052 699 512 699c-114.052 0-221.382-16.356-302.058-45.423-41.37-14.906-75.23-32.963-99.818-53.908C80.862 574.742 64 545.053 64 512c0-22.091 17.909-40 40-40s40 17.909 40 40c0 6.774 5.129 15.804 18.001 26.769 16.407 13.976 42.048 27.65 75.058 39.544C308.425 604.025 406.689 619 512 619c105.311 0 203.575-14.975 274.941-40.687 33.01-11.893 58.651-25.568 75.058-39.544C874.871 527.804 880 518.774 880 512c0-22.091 17.909-40 40-40z" fill="#050505" /><path d="M552.5 919.5c0 22.091-17.909 40-40 40-33.053 0-62.742-16.862-87.67-46.124-20.944-24.589-39.001-58.447-53.907-99.818C341.856 732.882 325.5 625.552 325.5 511.5c0-131.716 26.485-259.579 68.531-346 14.538-29.881 29.15-52.547 45.697-69.24 20.876-21.059 45.27-32.76 72.772-32.76 22.091 0 40 17.909 40 40s-17.909 40-40 40c-4.484 0-9.194 2.26-15.956 9.08-9.35 9.434-19.542 25.242-30.575 47.92-36.452 74.923-60.469 190.869-60.469 311 0 105.311 14.975 203.575 40.687 274.941 11.893 33.01 25.568 58.651 39.544 75.058 10.965 12.872 19.995 18.001 26.769 18.001 22.091 0 40 17.909 40 40z" fill="#050505" /></svg>