<?xml version="1.0" standalone="no"?><!DOCTYPE svg PUBLIC "-//W3C//DTD SVG 1.1//EN" "http://www.w3.org/Graphics/SVG/1.1/DTD/svg11.dtd"><svg class="icon" width="200px" height="171.52px" viewBox="0 0 1194 1024" version="1.1" xmlns="http://www.w3.org/2000/svg"><path d="M879.447421 337.416551m-59.501836 61.551427a85.609851 85.609851 0 1 0 119.003672-123.102853 85.609851 85.609851 0 1 0-119.003672 123.102853Z" fill="#050505" /><path d="M1052.536617 0H142.019443A142.019443 142.019443 0 0 0 0 142.019443v739.961114a142.683085 142.683085 0 0 0 142.019443 142.019443h910.517174A142.683085 142.683085 0 0 0 1194.55606 881.980557V142.019443A142.019443 142.019443 0 0 0 1052.536617 0z m56.409592 881.980557a57.073234 57.073234 0 0 1-56.409592 56.409592H142.019443a57.073234 57.073234 0 0 1-56.409592-56.409592v-110.828256l208.383668-208.383668A50.436811 50.436811 0 0 1 331.821128 548.168503a49.109527 49.109527 0 0 1 34.509397 16.591056l226.965651 250.856773a132.728451 132.728451 0 0 0 186.483474 12.609203l128.082955-109.500972a49.109527 49.109527 0 0 1 66.364226 0l139.364873 122.110175z m0-153.965003l-82.955282-73.000648a132.728451 132.728451 0 0 0-175.201556 0l-128.082955 108.173688a48.445885 48.445885 0 0 1-66.364225-4.645496L428.049255 507.686325a132.728451 132.728451 0 0 0-194.447181-5.309138L85.609851 651.033052V142.019443a57.073234 57.073234 0 0 1 56.409592-56.409592h910.517174a57.073234 57.073234 0 0 1 56.409592 56.409592z" fill="#050505" /></svg>